<?xml version="1.0" standalone="no"?>
<!DOCTYPE svg PUBLIC "-//W3C//DTD SVG 20010904//EN"
 "http://www.w3.org/TR/2001/REC-SVG-20010904/DTD/svg10.dtd">
<svg version="1.0" xmlns="http://www.w3.org/2000/svg"
 width="180.000000pt" height="180.000000pt" viewBox="0 0 180.000000 180.000000"
 preserveAspectRatio="xMidYMid meet">
<metadata>
Created by potrace 1.14, written by Peter Selinger 2001-2017
</metadata>
<g transform="translate(0.000000,180.000000) scale(0.100000,-0.100000)"
fill="#000000" stroke="none">
<path d="M856 1578 c-11 -15 -16 -46 -16 -97 l0 -74 -54 52 c-59 55 -85 62
-116 31 -40 -40 -27 -67 75 -170 l96 -96 -3 -106 -3 -107 -85 49 -86 49 -44
137 c-47 143 -65 169 -111 162 -12 -2 -31 -15 -42 -29 -19 -27 -19 -27 3 -94
12 -36 20 -68 19 -70 -2 -2 -30 12 -62 31 -81 47 -123 43 -142 -16 -10 -32 10
-55 87 -101 l73 -43 -73 -17 c-106 -25 -136 -61 -96 -117 20 -29 36 -28 200 8
l136 30 62 -35 c111 -62 109 -55 19 -108 l-80 -47 -137 30 c-164 36 -180 37
-200 8 -40 -56 -10 -92 96 -117 l73 -17 -72 -42 c-85 -50 -100 -71 -83 -113
20 -47 54 -49 132 -6 38 21 68 34 68 29 0 -4 -10 -36 -21 -71 -21 -63 -21 -63
-2 -89 23 -31 60 -39 88 -18 12 8 37 66 65 152 l46 137 85 48 84 49 3 -107 3
-107 -96 -96 c-102 -103 -115 -130 -75 -170 31 -31 57 -24 116 31 l54 52 0
-74 c0 -91 15 -119 65 -119 50 0 65 28 65 119 l0 74 54 -52 c59 -55 85 -62
116 -31 40 40 28 68 -75 170 l-95 95 0 107 c0 60 2 108 5 108 2 0 42 -22 87
-49 l83 -49 45 -137 c47 -144 65 -170 111 -163 12 2 31 15 42 30 19 26 19 26
-2 89 -11 35 -21 67 -21 71 0 5 29 -7 63 -27 73 -40 99 -43 127 -15 44 44 22
81 -85 141 l-60 33 73 18 c106 24 136 60 96 116 -20 29 -37 28 -199 -8 l-136
-30 -79 46 c-44 25 -80 47 -80 49 0 2 35 24 79 49 l79 47 136 -31 c163 -36
180 -37 200 -8 40 56 10 92 -96 117 l-73 17 72 42 c85 50 100 71 83 113 -20
47 -54 49 -132 6 -38 -21 -68 -33 -68 -29 0 5 9 35 20 68 24 69 15 110 -28
121 -53 13 -72 -11 -122 -161 l-46 -139 -85 -48 -84 -49 -3 107 -3 107 96 96
c102 103 115 130 75 170 -31 31 -57 24 -116 -31 l-54 -52 0 74 c0 91 -15 119
-65 119 -24 0 -39 -7 -49 -22z"/>
</g>
</svg>
